<?xml version="1.0" encoding="UTF-8" standalone="no"?>
<!-- Created with Inkscape (http://www.inkscape.org/) -->

<svg
   width="158.57452mm"
   height="195.9084mm"
   viewBox="0 0 158.57452 195.9084"
   version="1.1"
   id="svg5"
   xml:space="preserve"
   xmlns="http://www.w3.org/2000/svg"
   xmlns:svg="http://www.w3.org/2000/svg"><defs
     id="defs2" /><g
     id="layer1"
     transform="translate(-58.116068,-6.4736888)"><g
       id="g6504"
       transform="matrix(0.92277491,0,0,0.92277491,4.5111243,0.52286316)"><g
         id="g4301"
         transform="matrix(2,0,0,2,-40.695084,-11.202554)"><path
           style="display:inline;fill:#767676;fill-opacity:1;stroke:#a2a2a2;stroke-width:0.324237;stroke-opacity:1"
           d="m 89.506423,94.472726 c -0.183415,-0.222911 -0.510537,-1.309451 -0.726967,-2.414528 -0.360685,-1.841659 -0.47407,-2.026933 -1.359469,-2.221398 -0.531279,-0.116689 -1.088285,-0.08798 -1.237791,0.06382 -0.1495,0.151779 -0.689121,1.078462 -1.199149,2.059277 -0.663187,1.275349 -1.143406,1.814468 -1.685935,1.892727 -0.417236,0.06018 -0.882309,-0.08572 -1.033493,-0.324237 -0.151191,-0.238514 -0.277116,-1.337303 -0.279846,-2.441756 -0.0042,-1.704368 -0.11395,-2.08443 -0.725581,-2.512832 -0.396338,-0.277603 -0.896352,-0.504737 -1.111138,-0.504737 -0.214789,0 -0.94833,0.717787 -1.630097,1.595084 -0.681764,0.877294 -1.556785,1.744556 -1.944483,1.927246 -0.533752,0.251514 -0.800754,0.216681 -1.099639,-0.143452 -0.27652,-0.333189 -0.330628,-1.165311 -0.180675,-2.77872 0.184034,-1.980124 0.133636,-2.364128 -0.359425,-2.738264 -0.315414,-0.239338 -0.800192,-0.4398 -1.077286,-0.445474 -0.277094,-0.0057 -1.006626,0.512334 -1.621182,1.15113 -0.614556,0.638791 -1.378221,1.303451 -1.697032,1.477026 -0.318815,0.173561 -0.865963,0.224715 -1.215889,0.113655 -0.361759,-0.114813 -0.636225,-0.49099 -0.636225,-0.871993 0,-0.368535 0.170511,-1.270618 0.378895,-2.004628 0.208395,-0.734009 0.493378,-1.466346 0.6333,-1.627414 0.139923,-0.161062 0.111981,-0.558964 -0.0621,-0.884217 -0.174076,-0.325251 -0.601923,-0.744126 -0.950782,-0.930832 -0.515592,-0.275934 -0.96378,-0.120696 -2.394965,0.829559 -1.077962,0.715729 -2.053663,1.127356 -2.516271,1.061563 -0.427585,-0.0608 -0.805948,-0.371459 -0.871585,-0.715603 -0.06381,-0.334475 0.366956,-1.530679 0.957225,-2.658231 l 1.073213,-2.05009 -0.76697,-0.665189 c -0.421835,-0.365854 -0.854076,-0.665608 -0.960538,-0.666121 -0.106468,-6.47e-4 -1.102274,0.384779 -2.212918,0.856205 -1.658702,0.704053 -2.107487,0.78399 -2.512832,0.447586 -0.271412,-0.225253 -0.493478,-0.670399 -0.493478,-0.98921 0,-0.318809 0.606806,-1.347324 1.348461,-2.285586 1.284068,-1.624469 1.325785,-1.74585 0.873627,-2.541945 -0.324855,-0.57196 -0.725165,-0.821248 -1.267401,-0.789263 -0.435914,0.02571 -1.552196,0.185301 -2.480628,0.354634 -1.139533,0.207832 -1.798025,0.197903 -2.026475,-0.03055 -0.186132,-0.186135 -0.338421,-0.57688 -0.338421,-0.868331 0,-0.291449 0.729532,-1.220629 1.621183,-2.064844 0.891649,-0.844214 1.621181,-1.715937 1.621181,-1.937163 0,-0.221226 -0.205791,-0.683665 -0.457315,-1.027644 -0.389928,-0.533259 -0.786975,-0.610187 -2.694512,-0.522063 -1.708293,0.07892 -2.334723,-0.01416 -2.649718,-0.393703 -0.226887,-0.273383 -0.329004,-0.759397 -0.226925,-1.08003 0.10207,-0.320638 1.050672,-1.123212 2.107987,-1.783499 1.635778,-1.021535 1.895164,-1.311582 1.739779,-1.945417 -0.100443,-0.409693 -0.308118,-0.906563 -0.461515,-1.104159 -0.153397,-0.197592 -1.186083,-0.454079 -2.294861,-0.569971 -1.108776,-0.115879 -2.236404,-0.431153 -2.505839,-0.700588 -0.346868,-0.34687 -0.396828,-0.636427 -0.171136,-0.991874 0.175308,-0.276097 0.683508,-0.693178 1.129331,-0.926848 0.445826,-0.233672 1.35774,-0.659256 2.026478,-0.945742 1.069044,-0.457978 1.215885,-0.65583 1.215885,-1.63826 0,-1.099045 -0.03725,-1.129134 -2.269653,-1.833692 -2.1043,-0.664131 -2.269654,-0.782945 -2.269654,-1.630864 0,-0.784558 0.172808,-0.959393 1.215885,-1.230071 0.668738,-0.173544 1.716771,-0.437389 2.328964,-0.586326 0.850341,-0.206879 1.172355,-0.492453 1.364213,-1.209833 0.138121,-0.516466 0.187213,-1.042456 0.109096,-1.168866 -0.07812,-0.126413 -0.932273,-0.616461 -1.898104,-1.088995 -0.965833,-0.47254 -1.927175,-1.065344 -2.136315,-1.317343 -0.281279,-0.338918 -0.287033,-0.632372 -0.02212,-1.12738 0.267904,-0.500581 0.702479,-0.679732 1.724741,-0.711008 0.751629,-0.023 1.777435,-0.06638 2.27957,-0.09643 0.502133,-0.03001 1.047049,-0.266558 1.21092,-0.525603 0.163875,-0.259043 0.300184,-0.78685 0.302914,-1.172907 0.0033,-0.468592 -0.52278,-1.089317 -1.582675,-1.867352 -0.873203,-0.640987 -1.671108,-1.382947 -1.773124,-1.648796 -0.102018,-0.265847 -0.105825,-0.69094 -0.0085,-0.944645 0.09736,-0.253709 0.349224,-0.527371 0.55971,-0.608141 0.210486,-0.08077 1.324014,-0.0045 2.47451,0.169738 1.963909,0.297243 2.127315,0.272756 2.672476,-0.40049 0.319368,-0.394399 0.580668,-0.889407 0.580668,-1.100016 0,-0.21061 -0.656579,-1.027309 -1.459063,-1.814889 -0.807874,-0.792866 -1.459064,-1.734663 -1.459064,-2.110196 0,-0.373029 0.158544,-0.836783 0.352326,-1.030562 0.25361,-0.25361 0.821393,-0.220246 2.026476,0.119079 0.920783,0.259272 1.934285,0.552817 2.252226,0.652319 0.322159,0.100826 0.860437,-0.07462 1.215888,-0.3963 0.350794,-0.317466 0.637809,-0.770624 0.637809,-1.007018 0,-0.236392 -0.530888,-1.259719 -1.179752,-2.274055 -0.890218,-1.391634 -1.100517,-1.970092 -0.856897,-2.357008 0.17757,-0.28202 0.568286,-0.56104 0.868257,-0.620048 0.299971,-0.05901 1.43487,0.355631 2.521998,0.92142 l 1.976597,1.028708 0.815442,-0.815441 c 0.789581,-0.789581 0.799134,-0.849801 0.301259,-1.898997 -0.2828,-0.595957 -0.673228,-1.501881 -0.867619,-2.013165 -0.19439,-0.511282 -0.266934,-1.202148 -0.161208,-1.535254 0.106982,-0.337078 0.492974,-0.605647 0.870443,-0.605647 0.373022,0 1.450999,0.583455 2.395506,1.296563 1.525846,1.152026 1.807267,1.255566 2.524457,0.928793 0.443944,-0.202275 0.866183,-0.530393 0.938308,-0.72915 0.07213,-0.198757 -0.08574,-1.26193 -0.35078,-2.362602 -0.265054,-1.100673 -0.393571,-2.231449 -0.285593,-2.512832 0.107975,-0.281384 0.55253,-0.511606 0.987896,-0.511606 0.551082,0 1.230827,0.509836 2.237355,1.678111 1.424963,1.65395 1.460394,1.672058 2.460966,1.257609 1.005519,-0.416499 1.015185,-0.442906 1.015185,-2.773239 0,-1.686813 0.136485,-2.466012 0.482226,-2.752946 0.265222,-0.220116 0.701463,-0.316082 0.969417,-0.213257 0.267956,0.102827 1.003831,0.994586 1.635273,1.981692 0.831045,1.299126 1.346787,1.793366 1.867651,1.789772 0.395762,-0.0028 0.880905,-0.112166 1.078095,-0.243175 0.197188,-0.131009 0.457514,-0.821839 0.578502,-1.535159 0.12099,-0.71332 0.2998,-1.699402 0.397358,-2.191293 0.09757,-0.49189 0.450354,-1.0404341 0.783981,-1.218986 0.466551,-0.2496911 0.744081,-0.177073 1.202085,0.3145346 0.327514,0.3515474 0.862616,1.3820554 1.189115,2.2900174 0.578464,1.608653 0.623714,1.648327 1.770749,1.55252 1.140697,-0.09527 1.197586,-0.162698 1.838602,-2.178726 0.363816,-1.144223 0.920105,-2.2385198 1.236199,-2.4317723 0.460202,-0.2813558 0.69423,-0.2058224 1.174531,0.3790806 0.329897,0.4017456 0.702467,1.3501377 0.827931,2.1075367 0.125457,0.757398 0.36221,1.632425 0.526105,1.944501 0.178213,0.339326 0.671975,0.567415 1.228343,0.567415 0.794995,0 1.082738,-0.271245 1.977834,-1.86436 0.576112,-1.025396 1.210152,-1.971553 1.408962,-2.10257 0.1988,-0.131008 0.46047,-0.2404468 0.58147,-0.2431786 0.12102,-0.0028 0.44931,0.2243176 0.72954,0.5045506 0.35693,0.356936 0.50951,1.130281 0.50951,2.582483 0,1.717642 0.1075,2.130501 0.62716,2.408611 0.34493,0.184604 0.89208,0.327336 1.21589,0.31718 0.3238,-0.01016 1.14419,-0.747461 1.82311,-1.638456 0.67891,-0.890994 1.44677,-1.701493 1.70637,-1.801108 0.25959,-0.09961 0.7064,0.01342 0.99289,0.251198 0.41405,0.343631 0.4812,0.812213 0.32735,2.284201 -0.10645,1.018537 -0.2333,2.02059 -0.28186,2.226786 -0.0486,0.206193 0.30385,0.675387 0.78314,1.042651 l 0.87144,0.667755 1.67646,-1.507282 c 1.02065,-0.917657 1.98381,-1.50728 2.46215,-1.50728 0.43868,0 0.87861,0.242116 0.99606,0.548167 0.1157,0.301491 -0.12017,1.495217 -0.52415,2.652723 l -0.7345,2.104558 0.75715,0.58243 c 0.41644,0.320335 1.00387,0.585673 1.30543,0.589638 0.30154,0.004 0.6299,-0.124869 0.72968,-0.286305 0.0998,-0.161429 0.837,-0.677721 1.6383,-1.147313 1.16809,-0.684548 1.58585,-0.784788 2.10738,-0.505669 0.35777,0.191473 0.65049,0.55287 0.65049,0.803106 0,0.250238 -0.45396,1.282162 -1.0088,2.293165 -0.88344,1.609733 -0.95837,1.932455 -0.60289,2.596664 0.22325,0.417163 0.5744,0.823127 0.78031,0.902142 0.20591,0.07902 1.23153,-0.205058 2.27914,-0.631276 1.04762,-0.426217 2.08097,-0.774942 2.29634,-0.774942 0.21536,0 0.5825,0.230052 0.81586,0.511225 0.35358,0.426039 0.32622,0.693286 -0.16416,1.60387 -0.32363,0.600956 -0.93441,1.417685 -1.35728,1.81495 -0.42287,0.397267 -0.76886,0.972517 -0.76886,1.278337 0,0.305818 0.25534,0.854716 0.56741,1.219773 0.55217,0.645909 0.62291,0.649766 2.63334,0.143526 1.4626,-0.368299 2.2201,-0.423135 2.59388,-0.187771 0.29039,0.182844 0.57055,0.548218 0.62257,0.811934 0.052,0.263717 -0.67166,1.225922 -1.6082,2.138236 -1.56843,1.527852 -1.67774,1.730338 -1.38515,2.566006 0.30466,0.870206 0.42331,0.91388 2.90515,1.069377 2.49998,0.156632 2.59082,0.19076 2.68577,1.008926 0.0827,0.712622 -0.17419,1.019201 -1.62118,1.934776 -0.9457,0.598384 -1.82555,1.238668 -1.95523,1.422848 -0.12968,0.184181 -0.15141,0.626688 -0.0483,0.983348 0.10312,0.356661 0.41948,0.830856 0.70304,1.053768 0.28358,0.222912 1.18935,0.405295 2.01283,0.405295 0.82349,0 1.76551,0.196158 2.09338,0.435907 0.41703,0.304941 0.53696,0.670245 0.39916,1.215888 -0.14898,0.58996 -0.67989,0.966412 -2.17923,1.545245 -1.09025,0.420898 -2.0602,0.96837 -2.15546,1.216612 -0.0952,0.248238 -0.0902,0.782266 0.0114,1.186728 0.13592,0.541499 0.59392,0.854275 1.7372,1.186322 0.85396,0.248014 1.88094,0.596763 2.28217,0.775 0.45174,0.20066 0.72953,0.608565 0.72953,1.071197 0,0.410928 -0.28592,0.900166 -0.6354,1.087194 -0.34946,0.187031 -1.28115,0.428567 -2.07041,0.536748 -0.78926,0.108178 -1.58606,0.290039 -1.77067,0.404131 -0.1846,0.114098 -0.43181,0.590593 -0.54934,1.058888 -0.13576,0.540895 -0.0564,0.988784 0.21746,1.227979 0.23715,0.207094 1.0844,0.717811 1.88279,1.134932 0.79839,0.41712 1.60012,0.993843 1.78164,1.281607 0.22684,0.35962 0.21855,0.700609 -0.0265,1.090616 -0.27339,0.435066 -0.8862,0.589415 -2.62731,0.66175 -2.06565,0.08581 -2.30418,0.167717 -2.64097,0.906905 -0.20364,0.446915 -0.37024,0.934084 -0.37024,1.082596 0,0.148508 0.80249,0.875905 1.7833,1.61643 1.27771,0.96468 1.7833,1.563403 1.7833,2.111802 0,0.420968 -0.21695,0.848648 -0.48211,0.950401 -0.26516,0.101739 -1.45395,0.09425 -2.64175,-0.01673 -1.86857,-0.174481 -2.21873,-0.120842 -2.59813,0.39801 -0.24117,0.329827 -0.43849,0.785784 -0.43849,1.013242 0,0.227458 0.65657,1.152832 1.45905,2.056387 0.80249,0.903557 1.45907,1.838953 1.45907,2.078657 0,0.239707 -0.2049,0.605888 -0.45534,0.81373 -0.26103,0.216638 -0.84907,0.290969 -1.378,0.174187 -0.50747,-0.112038 -1.4853,-0.415152 -2.17296,-0.673573 -0.97994,-0.36827 -1.35186,-0.385587 -1.71995,-0.08009 -0.2583,0.214375 -0.60607,0.644692 -0.77282,0.956259 -0.22905,0.427977 -0.0265,0.977595 0.8283,2.247843 0.6223,0.924745 1.13146,1.940642 1.13146,2.257545 0,0.316905 -0.23516,0.771352 -0.52257,1.009883 -0.44689,0.370886 -0.82439,0.272424 -2.60691,-0.67996 -1.59686,-0.853188 -2.20894,-1.035056 -2.61706,-0.777617 -0.29301,0.184819 -0.67674,0.564334 -0.85274,0.843366 -0.22575,0.357879 -0.15048,0.864605 0.25547,1.720103 0.31652,0.667022 0.69588,1.632516 0.84302,2.145539 0.19449,0.678151 0.13464,1.065641 -0.21925,1.419534 -0.26772,0.267717 -0.60761,0.486761 -0.75529,0.486761 -0.14768,0 -1.04525,-0.583625 -1.99459,-1.296944 -0.94934,-0.713321 -1.96272,-1.296946 -2.25196,-1.296946 -0.28923,0 -0.77355,0.273666 -1.07625,0.608141 -0.51587,0.570034 -0.51655,0.742761 -0.0109,2.756271 0.43322,1.72466 0.46006,2.243953 0.13617,2.634222 -0.22189,0.26735 -0.62639,0.486093 -0.89892,0.486093 -0.27253,0 -1.26652,-0.796039 -2.20886,-1.768975 -1.70894,-1.764425 -1.71585,-1.767723 -2.68713,-1.283186 l -0.9738,0.485792 0.19316,2.303967 c 0.16463,1.963702 0.10913,2.365408 -0.37577,2.719979 -0.31291,0.228805 -0.78059,0.334788 -1.03929,0.235516 -0.25869,-0.09928 -1.05325,-1.038849 -1.76569,-2.087951 -1.17271,-1.726896 -1.37841,-1.887134 -2.17308,-1.692735 -0.48275,0.118104 -0.98493,0.374649 -1.115945,0.570102 -0.131026,0.195456 -0.241263,0.793091 -0.244983,1.328081 -0.0041,0.534991 -0.158728,1.519858 -0.344442,2.188596 -0.272695,0.981921 -0.490391,1.215885 -1.131357,1.215885 -0.622815,0 -0.923767,-0.296669 -1.397899,-1.378003 -0.332312,-0.757903 -0.771828,-1.788414 -0.9767,-2.290023 -0.3133,-0.767099 -0.534372,-0.895904 -1.391229,-0.810592 -0.560308,0.05579 -1.128774,0.320288 -1.263265,0.587784 -0.134482,0.267494 -0.430819,1.142933 -0.658513,1.945417 -0.227696,0.802486 -0.551485,1.641446 -0.719527,1.864358 -0.168048,0.222912 -0.561616,0.405296 -0.874606,0.405296 -0.312988,0 -0.719125,-0.182385 -0.902531,-0.405296 z M 100.29817,83.753192 c 1.60496,-0.412753 3.34271,-0.960168 3.86167,-1.21648 0.51895,-0.256316 1.23444,-0.859157 1.58998,-1.339656 0.35553,-0.480495 0.63342,-1.33125 0.61751,-1.890561 -0.0188,-0.659615 -1.204,-3.071422 -3.37327,-6.864114 -1.83941,-3.215954 -3.569744,-6.231719 -3.845196,-6.701703 -0.275452,-0.469983 -0.98244,-1.693477 -1.571075,-2.718873 -0.588638,-1.025398 -1.165748,-1.879476 -1.282474,-1.897953 -0.116725,-0.01848 -1.890148,-0.05799 -3.940944,-0.08783 -3.388032,-0.04928 -3.783798,0.0066 -4.33157,0.611746 -0.331567,0.366293 -2.640411,4.16229 -5.130767,8.435552 -2.490352,4.273263 -4.603014,8.145073 -4.694806,8.604026 -0.09178,0.45895 0.06002,1.377505 0.337332,2.04123 0.379419,0.908082 0.856815,1.362741 1.928772,1.836917 0.783501,0.34658 2.356922,0.873002 3.49649,1.169819 1.139567,0.29682 2.94738,0.654072 4.017359,0.7939 1.069981,0.139831 3.623341,0.191273 5.674137,0.114335 2.429822,-0.09116 4.745249,-0.401313 6.646852,-0.890348 z M 70.402841,73.364605 c 0.57663,-0.240934 1.539596,-1.00694 2.139923,-1.702239 0.600329,-0.695304 1.695479,-1.920764 2.433668,-2.723248 0.73819,-0.802486 3.031458,-3.355846 5.096152,-5.674137 2.0647,-2.318288 3.913504,-4.518132 4.108458,-4.88854 0.283343,-0.538341 0.19253,-1.022987 -0.452604,-2.415449 -0.44389,-0.958087 -0.888782,-2.338118 -0.988649,-3.066735 -0.09987,-0.728613 -0.367399,-1.578881 -0.594516,-1.889481 -0.239414,-0.327416 -1.348977,-0.768012 -2.640415,-1.048479 -1.225112,-0.266062 -2.957007,-0.641582 -3.848657,-0.834491 -0.89165,-0.192907 -2.131855,-0.463706 -2.756009,-0.601771 -0.624155,-0.138067 -2.59389,-0.577612 -4.377189,-0.97676 -1.7833,-0.399152 -4.060911,-0.798201 -5.061354,-0.886783 -1.085389,-0.0961 -2.105814,-0.0076 -2.530181,0.21956 -0.391155,0.209339 -0.994652,0.845502 -1.341103,1.413694 -0.466967,0.76584 -0.62876,1.620184 -0.625461,3.302727 0.0024,1.248312 0.208651,3.50986 0.458234,5.025664 0.249582,1.515805 0.8456,3.920541 1.324487,5.343866 0.478889,1.423319 1.313452,3.466008 1.854585,4.539307 0.541134,1.073297 1.531283,2.753938 2.200332,3.734752 0.669049,0.980816 1.560995,2.097024 1.982102,2.480463 0.421108,0.38344 1.057461,0.767757 1.414122,0.854038 0.35666,0.08629 0.762588,0.1738 0.902064,0.194488 0.139482,0.02067 0.72538,-0.159518 1.302011,-0.400446 z m 47.136429,-0.267251 c 0.20946,-0.168397 0.9636,-1.063472 1.67588,-1.989037 0.71226,-0.925566 1.88162,-2.850096 2.59856,-4.276736 0.71696,-1.426639 1.66798,-3.688189 2.11338,-5.025663 0.4454,-1.337474 1.03793,-3.85279 1.31673,-5.589584 0.27879,-1.736798 0.5069,-3.871099 0.5069,-4.742891 0,-0.871789 -0.21191,-2.092224 -0.4709,-2.712076 -0.25899,-0.619849 -0.83749,-1.367202 -1.28554,-1.660778 -0.44806,-0.293577 -1.31943,-0.533777 -1.93639,-0.533777 -0.61696,0 -2.48239,0.298353 -4.14542,0.663004 -1.66302,0.364657 -3.6073,0.796425 -4.32062,0.959491 -0.71332,0.163066 -2.75601,0.602397 -4.53931,0.976298 -1.7833,0.373898 -3.94658,0.84801 -4.80728,1.053583 -0.86071,0.205568 -1.68224,0.598657 -1.82562,0.873524 -0.14338,0.274868 -0.4273,1.288198 -0.63093,2.251845 -0.20364,0.963646 -0.68376,2.309893 -1.06693,2.991657 -0.55297,0.983869 -0.62658,1.391621 -0.35686,1.976635 0.1869,0.405384 2.41831,3.071562 4.95869,5.924841 2.54036,2.85328 5.47355,6.089167 6.51817,7.190864 1.04463,1.101694 2.23051,2.067987 2.63528,2.14731 0.40479,0.07932 1.17369,0.07301 1.70868,-0.01397 0.53499,-0.08705 1.14409,-0.29606 1.35353,-0.464466 z M 94.948427,55.564369 c 0.587826,-0.401242 1.348421,-1.240203 1.690222,-1.864359 0.4604,-0.840739 0.578375,-1.530181 0.455239,-2.660415 -0.09142,-0.839075 -0.391415,-1.869296 -0.666666,-2.289379 -0.275251,-0.420087 -1.068775,-1.083205 -1.763387,-1.473599 -0.709282,-0.39864 -1.82665,-0.709805 -2.548836,-0.709805 -0.800707,0 -1.689185,0.275269 -2.354684,0.729532 -0.587823,0.401241 -1.33893,1.237927 -1.669129,1.8593 -0.330196,0.621372 -0.600133,1.642717 -0.599856,2.269653 2.78e-4,0.626938 0.255615,1.647649 0.567413,2.268252 0.311802,0.620597 1.062684,1.45956 1.668627,1.864358 0.755542,0.504736 1.580983,0.735994 2.627001,0.735994 1.048944,0 1.859056,-0.227827 2.594056,-0.729532 z M 84.765624,45.220608 c 0.339718,-0.383753 1.602534,-1.339212 2.806262,-2.123245 1.210312,-0.788322 2.202639,-1.672122 2.22001,-1.977219 0.01728,-0.303438 0.0114,-1.13533 -0.01323,-1.848649 -0.02457,-0.713321 -0.173728,-2.391243 -0.331453,-3.728717 -0.157736,-1.337475 -0.458118,-4.328556 -0.667531,-6.646845 -0.209415,-2.31829 -0.512182,-5.008221 -0.672813,-5.977625 -0.171247,-1.033515 -0.579944,-2.068996 -0.988066,-2.503423 -0.382807,-0.407476 -1.156023,-0.892685 -1.718262,-1.078239 -0.818747,-0.270213 -1.438574,-0.201183 -3.113625,0.346765 -1.150257,0.376275 -3.039768,1.134514 -4.198912,1.684971 -1.159145,0.55046 -3.182867,1.7196 -4.49716,2.598089 -1.314293,0.87849 -3.359919,2.565862 -4.545833,3.749714 -1.185914,1.183851 -2.76656,2.959587 -3.512546,3.946079 -0.839188,1.109743 -1.429663,2.284188 -1.548653,3.080242 -0.143011,0.95679 -0.03208,1.542555 0.432726,2.284946 0.527042,0.841796 1.914711,1.567206 8.850494,4.626645 4.524002,1.99558 8.444313,3.762826 8.711809,3.927215 0.267495,0.164389 0.864984,0.307472 1.32775,0.317959 0.472621,0.01066 1.112119,-0.286743 1.459064,-0.678663 z m 20.071846,-0.583434 c 1.60497,-0.710003 5.54174,-2.444064 8.74837,-3.85347 4.09625,-1.800419 6.0227,-2.820337 6.47736,-3.429297 0.38135,-0.510768 0.64711,-1.373277 0.64711,-2.10011 0,-0.90743 -0.34027,-1.727422 -1.28757,-3.102874 -0.70817,-1.028226 -2.16392,-2.764974 -3.235,-3.859441 -1.07107,-1.094467 -2.94742,-2.736373 -4.16965,-3.648678 -1.22222,-0.912307 -3.31689,-2.200016 -4.65483,-2.861575 -1.33794,-0.661561 -3.31156,-1.48362 -4.38581,-1.826802 -1.07425,-0.343182 -2.43365,-0.623965 -3.020885,-0.623965 -0.668892,0 -1.431439,0.306052 -2.041466,0.819355 -0.535556,0.450645 -1.057866,1.216654 -1.160684,1.702241 -0.102806,0.485585 -0.333444,2.268994 -0.512508,3.963129 -0.179059,1.694135 -0.473285,4.53931 -0.653828,6.322607 -0.180548,1.7833 -0.454276,4.459022 -0.60829,5.946048 -0.154004,1.487026 -0.211383,2.966171 -0.127478,3.286995 0.08389,0.320825 0.809202,0.92105 1.611794,1.33384 0.802589,0.412784 1.993586,1.292512 2.646663,1.954943 0.69877,0.708788 1.520972,1.217502 1.997992,1.236197 0.44583,0.01746 2.12374,-0.549142 3.72872,-1.259143 z"
           id="path4305" /></g><g
         id="g358"
         transform="matrix(0.59257646,0,0,0.59257646,61.634208,38.780049)"><path
           style="display:inline;fill:#cecece;fill-opacity:1;stroke:none;stroke-width:0.868;stroke-linecap:round;stroke-linejoin:round;stroke-dasharray:none;stroke-dashoffset:0;stroke-opacity:1"
           d="m 119.63119,72.713337 c 10.06884,7.850353 25.60856,-0.373848 25.60856,-0.373848 0,0 11.08574,6.369995 17.19698,6.35541 5.32358,-0.01271 14.9539,-5.607715 14.9539,-5.607715 l -3.36462,-7.850796 v -5.046943 l -3.17771,-6.168482 -3.92539,-1.121543 -1.86924,-2.616932 2.61693,-7.476951 -1.49539,-0.934616 -2.99078,-1.121545 -1.49539,-3.55155 -9.15926,-7.47695 c 0,0 -9.34619,-2.056162 -14.01928,-0.93462 -4.6731,1.121542 -18.8793,8.41157 -20.37469,12.523891 -1.49539,4.112323 -5.23387,8.598492 -3.55155,17.010062 1.68231,8.41157 1.03745,11.267066 5.04693,14.393128 z"
           id="path4470"
           transform="matrix(1.687546,0,0,1.687546,-107.11648,-69.908082)" /><path
           style="display:inline;fill:#e6e6e6;fill-opacity:1;stroke-width:0.264583"
           d="m 60.383968,187.53313 -0.726958,-0.75878 0.08505,-9.09695 0.08505,-9.09695 0.734835,-1.85208 c 0.404159,-1.01865 1.165069,-2.50255 1.690912,-3.29757 0.525841,-0.79502 2.119792,-2.60029 3.54211,-4.01171 1.422318,-1.41142 3.322674,-3.06646 4.223012,-3.67786 0.900337,-0.61141 2.367687,-1.43911 3.26078,-1.83934 0.893091,-0.40022 2.772757,-1.10689 4.177035,-1.57038 1.404282,-0.46348 3.278349,-1.28333 4.1646,-1.82188 0.886251,-0.53855 2.345103,-1.51496 3.241895,-2.1698 0.896792,-0.65485 2.654961,-2.20266 3.907041,-3.43959 1.25208,-1.23692 2.906821,-3.08239 3.677203,-4.10104 0.770382,-1.01864 2.101202,-3.28083 2.957378,-5.02708 0.942162,-1.92163 1.76575,-4.0628 2.086282,-5.42396 0.291279,-1.23693 0.605009,-3.08239 0.697177,-4.10104 0.09217,-1.01865 0.0426,-2.84222 -0.110154,-4.05238 -0.152755,-1.21016 -0.51839,-2.97944 -0.812525,-3.93175 -0.294137,-0.95229 -0.885116,-2.46247 -1.313289,-3.35595 -0.428172,-0.89348 -1.353613,-2.33599 -2.056537,-3.20559 -0.702921,-0.8696 -1.975736,-2.14317 -2.828473,-2.83015 -0.852738,-0.68698 -2.338136,-1.65978 -3.300883,-2.16176 -0.962747,-0.502 -2.881543,-1.2715 -4.263991,-1.71002 -1.382448,-0.43852 -3.88276,-1.00302 -5.55625,-1.25444 -2.033857,-0.30556 -4.665641,-0.45819 -7.9375,-0.46033 -3.044965,-0.002 -6.167083,0.16248 -8.261376,0.43522 -1.85162,0.24113 -4.947245,0.73369 -6.879167,1.09457 -1.931918,0.36088 -4.40555,0.87816 -5.496957,1.14951 -1.091406,0.27134 -3.721631,1.00487 -5.844944,1.63005 -2.596943,0.76464 -4.089739,1.07918 -4.560716,0.96097 -0.38508,-0.0966 -0.910011,-0.49602 -1.166514,-0.88749 -0.437873,-0.66828 -0.466367,-2.39098 -0.466367,-28.19563 V 51.98809 l 0.86407,-0.772046 0.86407,-0.772046 h 24.099069 c 21.351896,0 24.198869,-0.04736 24.97454,-0.415439 0.481509,-0.228491 1.014655,-0.751456 1.184767,-1.162142 0.218133,-0.526619 0.231478,-1.008544 0.04528,-1.635083 -0.145209,-0.488608 -0.853337,-2.198065 -1.573615,-3.798794 -0.72028,-1.60073 -1.565153,-3.660942 -1.877496,-4.578252 -0.312346,-0.917311 -0.856626,-2.77908 -1.209514,-4.137269 -0.352885,-1.358185 -0.844283,-3.762816 -1.091994,-5.34362 -0.30241,-1.929886 -0.451858,-4.482361 -0.454871,-7.768984 -0.0032,-3.476405 0.128809,-5.661485 0.455522,-7.540624 0.253008,-1.455209 0.918311,-4.030874 1.478455,-5.7236995 0.560141,-1.6928253 1.399593,-3.8359502 1.865447,-4.7624998 0.465855,-0.9265496 1.383382,-2.5180712 2.038951,-3.53671702 0.655569,-1.01864579 1.944981,-2.75643168 2.865363,-3.86174708 0.92038,-1.1053127 2.43146,-2.7187709 3.357957,-3.5854612 0.926494,-0.8666929 2.727568,-2.3586121 4.002387,-3.3153774 1.274815,-0.956767 3.571055,-2.486093 5.102755,-3.398503 1.5317,-0.912409 4.28983,-2.339666 6.12918,-3.171681 1.83934,-0.832015 4.65395,-1.994445 6.25468,-2.583178 1.60073,-0.588733 4.4672,-1.548363 6.36994,-2.132511 1.90275,-0.584148 4.38631,-1.253518 5.51904,-1.48749 1.13273,-0.233971 3.55439,-0.539504 5.38146,-0.678961 2.16483,-0.165238 4.37223,-0.161486 6.33717,0.01077 1.65837,0.145381 4.1579,0.511899 5.55451,0.814486 1.39661,0.302586 3.74084,0.965238 5.20941,1.472558 1.46858,0.507321 3.68216,1.465524 4.91909,2.129342 1.23693,0.663817 2.92608,1.666275 3.75368,2.227683 0.8276,0.561408 2.23876,1.700326 3.1359,2.530928 0.89715,0.830603 2.63105,2.758235 3.8531,4.283627 2.14593,2.6786069 2.22124,2.8192647 2.20259,4.113646 -0.0106,0.7371132 -0.10795,1.9622398 -0.21628,2.7225068 -0.15966,1.1204654 -0.10492,1.5276829 0.28898,2.1498083 0.34853,0.5504603 0.7651,0.81005091 1.47306,0.91793741 0.5429,0.0827379 2.28443,0.23406628 3.87007,0.3362854 2.27075,0.14638866 2.98569,0.28858103 3.3667,0.66959424 0.26606,0.26605441 0.55989,0.78714862 0.65297,1.15798335 0.12049,0.4800811 -0.28858,1.8725434 -1.42052,4.8353739 -0.87436,2.288622 -1.78092,4.8342996 -2.01458,5.6570616 -0.23366,0.822762 -0.42484,2.268086 -0.42484,3.211833 0,1.254863 0.12731,1.873123 0.47382,2.301039 l 0.47381,0.585131 1.67044,-0.703077 c 1.16931,-0.492157 1.90302,-0.651992 2.44574,-0.532789 0.53571,0.11766 1.45811,0.937189 2.98475,2.651871 1.21519,1.364872 2.75337,3.409379 3.41817,4.543348 0.6648,1.133967 1.6271,2.967273 2.13844,4.074009 0.51134,1.106734 1.07295,2.547779 1.24801,3.202318 0.26652,0.996482 0.2464,1.446313 -0.12369,2.765296 -0.24309,0.866372 -0.44198,2.30003 -0.44198,3.185903 0,1.153147 0.25823,2.350751 0.90906,4.215976 0.49998,1.432912 1.45578,3.757129 2.124,5.164929 1.12673,2.373812 1.30564,2.604309 2.46437,3.175 l 1.24944,0.615365 28.10607,0.132292 28.10608,0.132291 0.73351,0.734928 c 0.65252,0.653783 0.73053,0.916705 0.70655,2.38125 -0.0148,0.905478 -0.23869,2.896478 -0.49749,4.424447 -0.2588,1.527969 -0.88214,4.021717 -1.3852,5.541663 -0.50306,1.519947 -1.43404,3.943686 -2.06884,5.386089 -0.6348,1.442402 -1.65607,3.473029 -2.26948,4.512502 -0.61342,1.039474 -1.74244,2.723391 -2.50895,3.742037 -0.7665,1.018646 -2.20538,2.645066 -3.19752,3.614269 -0.99214,0.9692 -3.23265,2.707005 -4.9789,3.861787 -1.74625,1.154781 -4.42515,2.763919 -5.95312,3.575859 -1.52797,0.811943 -4.32594,2.180971 -6.21771,3.042285 -1.89177,0.861314 -7.07099,3.086555 -11.50938,4.94498 -4.43838,1.858426 -9.6176,4.031693 -11.50937,4.829473 -1.89177,0.79779 -5.15932,2.27486 -7.26123,3.28237 -2.1019,1.00752 -5.13799,2.5612 -6.74687,3.45262 -1.60888,0.89142 -4.26585,2.50139 -5.90439,3.57769 -1.63854,1.0763 -3.84119,2.67368 -4.89479,3.54972 -1.0536,0.87605 -2.53541,2.31767 -3.29291,3.20362 -0.7575,0.88594 -1.80263,2.42027 -2.32251,3.4096 -0.51988,0.98934 -1.18003,2.71683 -1.467,3.83886 -0.32415,1.26741 -0.52176,2.91707 -0.52176,4.3557 0,1.27361 0.16728,3.18933 0.37174,4.25716 0.20446,1.06782 0.67914,2.82097 1.05485,3.89588 0.37571,1.0749 1.1719,2.86084 1.7693,3.96875 0.59741,1.1079 1.59747,2.72875 2.22235,3.60187 0.62488,0.87313 1.87517,2.39178 2.77843,3.37479 0.90325,0.98301 2.83449,2.68538 4.29165,3.78304 1.5529,1.16978 3.86957,2.5826 5.59771,3.41374 1.62159,0.77991 4.13897,1.79661 5.59418,2.25935 2.03438,0.64691 3.44073,0.89832 6.08542,1.08785 1.89177,0.13558 4.5152,0.35976 5.82984,0.49819 1.31465,0.13843 3.37924,0.53813 4.58799,0.88824 1.20875,0.3501 2.38077,0.8196 2.60451,1.04333 0.30688,0.30688 0.45957,1.37088 0.62173,4.33225 0.11823,2.15901 0.22206,7.4714 0.23075,11.80532 0.0125,6.22428 -0.0629,8.06816 -0.35867,8.7761 -0.20597,0.49294 -0.61486,1.02489 -0.90865,1.18213 -0.37122,0.19867 -7.75197,0.28588 -24.19485,0.28588 -13.01337,0 -24.19043,-0.0726 -24.83792,-0.16136 l -1.17725,-0.16136 -0.83104,-3.07979 c -0.45708,-1.69388 -1.1431,-4.50853 -1.52449,-6.25478 -0.50963,-2.33337 -1.06309,-3.9465 -2.0879,-6.08542 -0.76694,-1.60073 -1.96687,-3.62479 -2.6665,-4.49792 -0.69963,-0.87312 -2.29601,-2.64233 -3.54751,-3.93158 -1.2515,-1.28925 -3.14987,-2.99886 -4.2186,-3.79915 -1.06872,-0.80028 -2.91419,-1.90863 -4.10104,-2.463 -1.18685,-0.55437 -3.05087,-1.19105 -4.14228,-1.41484 -1.0914,-0.22379 -2.9392,-0.48645 -4.10622,-0.58368 -1.21574,-0.10129 -3.13652,-0.0452 -4.49792,0.13136 -1.30684,0.16948 -3.26904,0.5487 -4.36044,0.84272 -1.09141,0.29401 -3.09779,1.06132 -4.45863,1.70513 -1.36084,0.6438 -3.20631,1.6969 -4.10104,2.34022 -0.89474,0.64332 -2.37708,1.91591 -3.29411,2.82798 -0.91702,0.91207 -2.30478,2.61997 -3.08391,3.79533 -0.77913,1.17536 -1.89398,3.26811 -2.47745,4.65056 -0.58346,1.38244 -1.18477,2.98979 -1.33623,3.57187 -0.15147,0.58208 -0.52636,2.64804 -0.83311,4.59101 -0.30675,1.94298 -0.7886,4.2802 -1.07079,5.19382 -0.2822,0.91363 -0.66819,1.78987 -0.85776,1.94721 -0.18957,0.15733 -1.64771,0.40962 -3.24031,0.56064 -1.672965,0.15865 -10.49947,0.27468 -20.90393,0.27481 l -18.008311,2.2e-4 z m 5.01763,-11.45251 c 1.296461,-0.89537 3.547827,-2.54755 5.003035,-3.67151 1.455209,-1.12396 3.809085,-3.12449 5.230834,-4.44562 2.173983,-2.02013 2.826052,-2.47292 4.101042,-2.84773 0.833823,-0.24512 2.030915,-0.6272 2.660208,-0.84906 0.65651,-0.23146 1.417693,-0.762 1.785937,-1.24479 0.352973,-0.46277 0.641771,-0.96682 0.641771,-1.12011 0,-0.15329 0.654844,-1.11563 1.455208,-2.13853 0.800365,-1.0229 1.455209,-2.03252 1.455209,-2.24361 0,-0.21108 -0.196977,-0.5472 -0.437727,-0.74692 -0.314087,-0.26055 -1.138817,-0.34788 -2.919846,-0.30918 -1.365168,0.0297 -3.876863,0.23633 -5.581545,0.45924 -1.704684,0.22291 -3.882734,0.62349 -4.840112,0.89017 -0.957379,0.26668 -2.506282,0.91301 -3.442007,1.4363 -0.935723,0.52329 -2.430307,1.7106 -3.321294,2.63847 -0.937101,0.9759 -2.010627,2.46325 -2.546707,3.52842 -0.509701,1.01275 -1.177986,2.65558 -1.485077,3.65072 -0.307091,0.99515 -0.698008,3.14917 -0.868704,4.78673 -0.170696,1.63755 -0.234582,3.17483 -0.141973,3.41617 0.09261,0.24134 0.331769,0.4388 0.531466,0.4388 0.199694,0 1.423821,-0.73258 2.720282,-1.62796 z m 55.842712,-45.71349 c 0.82005,-0.37235 1.13591,-0.68903 1.24772,-1.25095 0.0824,-0.41382 0.22923,-1.22864 0.32642,-1.81073 0.0972,-0.58208 0.35455,-1.41552 0.57192,-1.85208 0.21737,-0.43656 1.02784,-1.56766 1.80104,-2.51354 0.77321,-0.94589 2.48939,-2.79136 3.81374,-4.10104 l 2.40792,-2.38125 3.24658,3.30729 c 1.78562,1.81901 3.63285,3.87427 4.10495,4.56724 0.55492,0.81453 0.99891,1.934 1.25593,3.16667 0.21866,1.04869 0.53938,2.07773 0.71271,2.28676 0.17333,0.20903 0.69827,0.5402 1.16654,0.73594 0.46827,0.19574 1.19635,0.35589 1.61796,0.35589 0.42162,0 1.07741,-0.24451 1.45734,-0.54336 0.37991,-0.29884 0.8161,-1.00885 0.96931,-1.57781 0.1532,-0.56895 0.53975,-1.21741 0.859,-1.44102 0.31924,-0.22361 0.9065,-0.40656 1.30502,-0.40656 0.40466,0 0.96275,-0.25567 1.26404,-0.57906 0.31615,-0.33934 0.53947,-0.93924 0.53947,-1.44911 0,-0.62877 -0.17782,-0.98656 -0.64123,-1.2902 -0.403,-0.26406 -1.01736,-0.38115 -1.65364,-0.31516 l -1.01242,0.10499 1.09209,0.0445 c 0.60064,0.0245 1.2406,0.22344 1.42213,0.44216 0.18153,0.21873 0.33005,0.69893 0.33005,1.0671 0,0.36818 -0.21192,0.9036 -0.47095,1.18982 -0.25903,0.28621 -0.79363,0.52039 -1.18802,0.52039 -0.39438,0 -1.02163,0.23958 -1.39388,0.5324 -0.37226,0.29281 -0.75836,0.91789 -0.858,1.38906 -0.0996,0.47117 -0.4272,1.12456 -0.72789,1.45198 -0.32789,0.35703 -0.85645,0.59531 -1.32051,0.59531 -0.42559,0 -1.17436,-0.19008 -1.66395,-0.4224 -0.48958,-0.23233 -0.94743,-0.61928 -1.01742,-0.8599 -0.07,-0.24062 -0.25387,-1.14884 -0.40861,-2.01828 -0.18519,-1.04055 -0.61281,-2.0804 -1.25126,-3.04271 -0.53345,-0.80405 -2.50369,-3.00973 -4.3783,-4.9015 l -3.40838,-3.43958 -3.38242,3.48048 c -1.86033,1.91427 -3.8194,4.13883 -4.3535,4.94348 -0.6881,1.03667 -1.07664,2.02128 -1.33333,3.37879 -0.23034,1.21817 -0.53518,2.04224 -0.83716,2.26305 -0.2612,0.19099 -0.88006,0.42326 -1.37523,0.51616 -0.49518,0.0929 -1.19062,0.0366 -1.54543,-0.12503 -0.35481,-0.16166 -0.75156,-0.56357 -0.88167,-0.89314 -0.13011,-0.32956 -0.37453,-0.97072 -0.54315,-1.42478 -0.16863,-0.45407 -0.60181,-0.96008 -0.96262,-1.12448 -0.36082,-0.1644 -0.90894,-0.29891 -1.21806,-0.29891 -0.30911,0 -0.77976,-0.19704 -1.04588,-0.43788 -0.27807,-0.25164 -0.48385,-0.80051 -0.48385,-1.29052 0,-0.46895 0.15033,-0.9774 0.33408,-1.1299 0.18374,-0.1525 0.80882,-0.32565 1.38906,-0.38479 l 1.05498,-0.10753 -1.12448,-0.0445 c -0.81365,-0.0322 -1.27075,0.1018 -1.65364,0.48469 -0.29105,0.29104 -0.52917,0.81076 -0.52917,1.15494 0,0.34418 0.24676,0.93949 0.54837,1.32292 0.39966,0.50808 0.7915,0.69714 1.4449,0.69714 0.5682,0 1.08489,0.20217 1.41085,0.55206 0.28288,0.30363 0.5896,0.95332 0.68161,1.44374 0.0939,0.5004 0.46887,1.12892 0.85458,1.43232 0.37801,0.29734 1.0582,0.53801 1.51152,0.53482 0.45331,-0.003 1.31832,-0.23017 1.92222,-0.50439 z m -2.28863,-8.15463 c 0.65484,-0.38011 3.09562,-2.57772 5.42395,-4.88356 l 4.23334,-4.19245 -4.254,-4.16535 c -2.96203,-2.90031 -4.72985,-4.41747 -5.82083,-4.99551 -0.94725,-0.50189 -2.12108,-0.88354 -2.96841,-0.96514 -0.77087,-0.0742 -1.57454,-0.27851 -1.78594,-0.45396 -0.2114,-0.17545 -0.38436,-0.6099 -0.38436,-0.96545 0,-0.35555 0.11574,-0.86274 0.25722,-1.12708 0.16007,-0.2991 0.69819,-0.546758 1.42474,-0.65571 0.64213,-0.09629 1.34874,-0.378198 1.57024,-0.626457 0.2215,-0.248258 0.53692,-0.955371 0.70092,-1.571358 0.17454,-0.6556 0.52993,-1.244007 0.8571,-1.419106 0.30741,-0.16452 1.0821,-0.240157 1.72155,-0.168081 0.63944,0.07208 1.38605,0.333245 1.65913,0.580382 0.29548,0.267403 0.57084,1.003191 0.68008,1.817229 0.10096,0.752338 0.34392,1.757351 0.53991,2.233371 0.19599,0.47601 0.88737,1.54757 1.53639,2.38125 0.64902,0.83367 2.5039,2.82545 4.12196,4.42618 l 2.94193,2.91042 3.65064,-3.70417 c 2.00784,-2.03729 3.98526,-4.27988 4.39424,-4.98352 0.40899,-0.70365 0.84373,-1.834744 0.96608,-2.513545 0.12235,-0.6788 0.28539,-1.499907 0.36232,-1.824681 0.0769,-0.324776 0.48943,-0.77126 0.91666,-0.992187 0.42722,-0.22093 1.1477,-0.401688 1.60106,-0.401688 0.45335,0 1.04504,0.11815 1.31486,0.262551 0.26982,0.144405 0.63245,0.709951 0.80585,1.256771 0.17339,0.546822 0.47833,1.254477 0.67763,1.572567 0.24623,0.392983 0.74285,0.635407 1.54949,0.75637 0.65291,0.09791 1.29281,0.313902 1.42201,0.479982 0.12919,0.16608 0.30058,0.57029 0.38088,0.89825 0.0865,0.35342 -0.0326,0.81629 -0.29252,1.13648 -0.2973,0.36625 -0.86448,0.58349 -1.76142,0.67465 -0.7276,0.074 -1.95724,0.43901 -2.73252,0.81126 -0.86255,0.41414 -2.65951,1.83509 -4.63021,3.66133 -1.77133,1.64149 -3.81591,3.59962 -4.54352,4.35141 l -1.32291,1.36689 3.97043,3.90795 c 2.18375,2.14937 4.62453,4.33831 5.42396,4.8643 0.79944,0.52599 1.81071,1.0362 2.24727,1.13379 0.47821,0.10691 0.11328,-0.16976 -0.918,-0.69595 -1.32385,-0.67547 -2.67289,-1.82329 -5.95312,-5.06517 l -4.24138,-4.19177 4.04953,-3.91358 c 2.22723,-2.15248 4.69099,-4.30236 5.47502,-4.77753 0.79113,-0.47948 1.93261,-0.91981 2.56506,-0.9895 0.62676,-0.069 1.39912,-0.17787 1.71637,-0.24182 0.31725,-0.064 0.76373,-0.3032 0.99219,-0.53165 0.22845,-0.22846 0.41537,-0.76947 0.41537,-1.20226 0,-0.48267 -0.25106,-1.03794 -0.64943,-1.4363 -0.38615,-0.386159 -0.95559,-0.649438 -1.40464,-0.649438 -0.41536,0 -0.94342,-0.148828 -1.17345,-0.330729 -0.23004,-0.181901 -0.56597,-0.806979 -0.74651,-1.389062 -0.18055,-0.582084 -0.45668,-1.219565 -0.61364,-1.416627 -0.15695,-0.197059 -0.58206,-0.471091 -0.94467,-0.608957 -0.43324,-0.164717 -1.08721,-0.148016 -1.90723,0.0487 -0.68636,0.164656 -1.43929,0.510829 -1.67318,0.769274 -0.23389,0.258445 -0.55422,1.231196 -0.71184,2.161669 -0.15762,0.930474 -0.59276,2.22567 -0.96699,2.87821 -0.37423,0.65253 -2.26499,2.79566 -4.2017,4.76249 l -3.52129,3.57607 -3.40201,-3.43958 c -1.91376,-1.93489 -3.76173,-4.07128 -4.22429,-4.88359 -0.4774,-0.83836 -0.89585,-2.032844 -0.99769,-2.84793 -0.0965,-0.772157 -0.39874,-1.687848 -0.67171,-2.034873 -0.30233,-0.384355 -1.0076,-0.75361 -1.80452,-0.944788 -1.05048,-0.252005 -1.45324,-0.244263 -2.0443,0.0393 -0.51309,0.24615 -0.88273,0.753912 -1.22011,1.676048 -0.26621,0.727604 -0.67958,1.471745 -0.9186,1.653646 -0.23902,0.181901 -0.77443,0.330729 -1.18979,0.330729 -0.44905,0 -1.01849,0.263279 -1.40464,0.649438 -0.39825,0.39824 -0.64943,0.95365 -0.64943,1.436 0,0.53461 0.22331,0.96223 0.69714,1.33494 0.45426,0.35733 1.08478,0.54837 1.80982,0.54837 0.71375,0 1.69831,0.29264 2.74605,0.81621 1.22668,0.61297 2.67007,1.82707 5.79695,4.87605 l 4.16358,4.05985 -3.57187,3.61149 c -1.96454,1.98633 -4.28625,4.12188 -5.15938,4.74568 -0.87312,0.62379 -1.94469,1.26995 -2.38125,1.4359 l -0.79375,0.30174 0.79375,-0.15198 c 0.43656,-0.0836 1.32953,-0.46298 1.98438,-0.8431 z M 49.080378,100.29864 c 0.478187,-0.402371 0.929331,-1.127456 1.103167,-1.773032 0.217556,-0.807947 0.215154,-1.439963 -0.0092,-2.428078 -0.166838,-0.734706 -0.493159,-2.169263 -0.725157,-3.187909 -0.269337,-1.182614 -0.421875,-3.095387 -0.421991,-5.291667 -1.41e-4,-2.681761 0.123645,-3.895089 0.561834,-5.507024 0.309108,-1.137094 0.949653,-2.794727 1.423435,-3.683632 0.473784,-0.888907 1.450012,-2.260203 2.169398,-3.047328 0.719386,-0.787122 2.01023,-1.908024 2.868541,-2.490893 0.858311,-0.582866 2.415085,-1.414595 3.459496,-1.848281 1.044411,-0.433689 3.030024,-1.032301 4.412472,-1.330248 1.928643,-0.415669 4.052745,-0.588669 9.128125,-0.743458 3.638021,-0.110956 39.139812,-0.164357 78.892862,-0.118674 64.80652,0.07448 72.36066,0.125656 73.07509,0.495102 0.43824,0.226621 0.98262,0.677338 1.20973,1.001588 0.22712,0.324252 0.41171,1.069072 0.41022,1.655159 -0.002,0.889611 -0.5453,1.973575 -3.28791,6.563143 -1.80684,3.023647 -3.36396,5.856258 -3.46026,6.294691 -0.10642,0.484523 -0.0494,0.948552 0.1453,1.183193 0.17621,0.21232 0.67082,0.386037 1.09913,0.386037 0.42831,0 1.00674,-0.122015 1.28539,-0.271147 0.27866,-0.14913 5.61094,-5.957948 11.84952,-12.908483 6.23859,-6.950533 11.47965,-12.892878 11.6468,-13.205209 0.16716,-0.31233 0.30392,-0.990539 0.30392,-1.507132 0,-0.663917 -0.22631,-1.192565 -0.77198,-1.803331 l -0.77197,-0.864071 -26.82261,-0.132292 c -25.33392,-0.124949 -26.86325,-0.158933 -27.55503,-0.61228 -0.40283,-0.263996 -1.07556,-1.02107 -1.49496,-1.68239 -0.4194,-0.661321 -1.13514,-2.231263 -1.59055,-3.488762 -0.4554,-1.257498 -1.22296,-3.828563 -1.70569,-5.713475 -0.64929,-2.535314 -1.03048,-3.550849 -1.46488,-3.902604 -0.35096,-0.284187 -1.02782,-0.477118 -1.68237,-0.479539 -0.60234,-0.0021 -1.26008,-0.108495 -1.46164,-0.236146 -0.2942,-0.18632 -0.25925,-0.289481 0.17724,-0.523084 0.29905,-0.160044 0.68877,-0.738388 0.86604,-1.285208 0.17728,-0.546822 0.73303,-1.81564 1.23501,-2.819596 0.52426,-1.048533 0.97242,-2.404234 1.05306,-3.185538 0.10762,-1.042723 0.004,-1.676196 -0.44215,-2.714302 -0.39622,-0.921028 -1.24006,-1.994003 -2.63829,-3.354689 -1.13067,-1.100299 -2.35236,-2.113314 -2.71487,-2.251144 -0.36252,-0.137826 -1.61546,-0.185047 -2.78431,-0.104933 -1.16885,0.08011 -2.55914,0.06425 -3.08952,-0.03525 -0.53039,-0.0995 -1.36855,-0.535803 -1.86257,-0.969561 -0.51496,-0.452141 -1.07702,-1.313394 -1.31726,-2.018455 -0.25496,-0.748279 -0.41831,-2.117831 -0.41718,-3.497781 0.001,-1.326973 0.21377,-3.146192 0.51261,-4.384638 0.28092,-1.164167 0.81221,-2.9133457 1.18065,-3.8870625 0.36844,-0.9737169 0.9712,-2.3949845 1.33947,-3.1583709 0.36827,-0.7633863 0.66958,-1.6471132 0.66958,-1.9638379 0,-0.3167248 -0.32742,-0.9071557 -0.7276,-1.3120687 -0.40018,-0.404913 -1.36479,-1.0203153 -2.14358,-1.36755976 -0.77878,-0.34724445 -1.99316,-0.75513668 -2.69861,-0.90643072 l -1.28264,-0.27507669 0.41879,-0.87821553 0.4188,-0.8782182 -3.1074,-4.1227929 c -1.70908,-2.2675346 -3.71925,-4.6401192 -4.46706,-5.2724072 -0.74781,-0.632291 -1.91213,-1.525144 -2.58738,-1.98412 -0.67525,-0.458975 -2.08816,-1.26632 -3.13979,-1.794099 -1.05164,-0.52778 -2.76135,-1.250168 -3.79936,-1.605308 -1.03801,-0.35514 -2.92342,-0.878112 -4.1898,-1.16216 -1.26638,-0.284047 -3.67762,-0.636998 -5.35831,-0.784335 -1.98367,-0.173898 -4.05506,-0.180197 -5.90391,-0.01795 -1.56646,0.137463 -3.97725,0.495778 -5.35732,0.796256 -1.38006,0.300479 -3.69983,0.91468 -5.15504,1.364893 -1.4552,0.450213 -4.46227,1.529825 -6.68237,2.399138 -2.22009,0.869313 -5.31572,2.234446 -6.87916,3.033628 -1.56345,0.799182 -4.21185,2.3644646 -5.88534,3.4784107 -2.10253,1.3995267 -3.99028,2.9680243 -6.109304,5.0761078 -1.87248,1.86280414 -3.648011,3.9354229 -4.55972,5.322665 -0.821219,1.2495503 -1.964074,3.333144 -2.539677,4.6302081 -0.575604,1.2970616 -1.37495,3.5489194 -1.776323,5.0041284 -0.689499,2.49983 -0.729763,2.952437 -0.729657,8.202082 1.08e-4,5.367817 0.02771,5.65944 0.813847,8.598958 0.447556,1.67349 1.26001,4.233334 1.805456,5.688542 0.545447,1.455208 1.69925,4.059481 2.564009,5.787271 0.864756,1.727792 2.341835,4.386426 3.282397,5.908079 0.940559,1.52165 2.420572,3.734575 3.288912,4.917612 0.86834,1.183034 1.57699,2.393931 1.57476,2.690881 -0.002,0.296947 -0.0939,0.681286 -0.20382,0.854083 -0.10988,0.172797 -0.53253,0.440687 -0.93922,0.595312 -0.50394,0.191596 -9.139611,0.281607 -27.114403,0.282612 -17.326538,0.0011 -26.712532,0.09523 -27.358935,0.274752 -0.541184,0.150302 -1.350076,0.581332 -1.79754,0.957847 -0.44746,0.376515 -1.046471,1.141103 -1.331132,1.699083 -0.49951,0.979122 -0.517564,1.678979 -0.517564,20.062601 0,13.99612 0.08222,19.228548 0.310013,19.728497 0.170508,0.374221 0.715121,0.930775 1.210251,1.236782 0.49513,0.306005 1.39742,0.711835 2.005092,0.901845 0.607668,0.19 1.363607,0.35343 1.679863,0.36316 0.316259,0.01 0.939088,-0.28865 1.384067,-0.66307 z M 111.01818,55.780365 c -0.65485,-0.263419 -1.48137,-0.649131 -1.83671,-0.857136 -0.35535,-0.208005 -1.06973,-0.735377 -1.5875,-1.17194 -0.51778,-0.436562 -1.38656,-1.243833 -1.93062,-1.793936 -0.54406,-0.5501 -1.5915,-1.723932 -2.32766,-2.608513 -0.73616,-0.884582 -2.02851,-2.637155 -2.8719,-3.894606 -0.843394,-1.257453 -2.181294,-3.35784 -2.973118,-4.667528 -0.791824,-1.309687 -1.997752,-3.638031 -2.67984,-5.174099 -0.682088,-1.536067 -1.527715,-3.56013 -1.879166,-4.497916 -0.351454,-0.937786 -0.781217,-2.395593 -0.955027,-3.239566 -0.245835,-1.193697 -0.245293,-1.619724 0.0024,-1.918229 0.175157,-0.211053 0.436957,-0.383731 0.581774,-0.383731 0.144817,0 1.707817,1.460008 3.473331,3.244461 1.765517,1.784453 4.115656,3.863348 5.222536,4.619765 1.10688,0.756418 3.16266,1.966222 4.5684,2.688455 1.40574,0.722233 4.19105,1.847906 6.18958,2.501495 2.40217,0.785598 4.70973,1.334024 6.80868,1.618184 1.74625,0.236413 4.30609,0.596418 5.68854,0.800015 1.38245,0.203597 3.05997,0.612714 3.72782,0.909148 0.66785,0.296437 1.53346,0.858166 1.92359,1.248291 0.39012,0.390123 0.78204,0.999109 0.87094,1.353301 0.0889,0.354196 0.0217,1.110946 -0.14926,1.681671 -0.171,0.570727 -0.81169,1.609373 -1.42377,2.308103 -0.61207,0.698733 -1.7677,1.754063 -2.56807,2.345182 -0.80036,0.591119 -2.11005,1.400728 -2.91042,1.799132 -0.80036,0.398404 -1.6381,0.884804 -1.86165,1.080889 -0.22354,0.196086 -1.83089,0.764535 -3.57187,1.263222 -1.74099,0.498686 -3.87981,0.97828 -4.75293,1.065768 -1.20324,0.120562 -1.8757,0.04313 -2.77813,-0.319882 z m 25.44445,-0.309284 c -6.76941,-0.123836 -7.25556,-0.165116 -7.60677,-0.645883 -0.20635,-0.282474 -0.37474,-0.58013 -0.3742,-0.661458 5.3e-4,-0.08133 0.23206,-0.526825 0.51448,-0.989997 0.28241,-0.463169 1.12566,-1.326028 1.87388,-1.917461 0.78405,-0.61976 1.99466,-1.259721 2.8575,-1.510554 1.24824,-0.362874 1.69525,-0.382715 2.68919,-0.119372 0.65565,0.173715 2.10313,0.708234 3.21663,1.187823 1.11349,0.479586 2.99915,1.443355 4.19035,2.141706 1.1912,0.698352 2.23073,1.438902 2.31007,1.645664 0.0794,0.206764 0.0392,0.47195 -0.0893,0.589304 -0.12846,0.117356 -0.70982,0.25818 -1.2919,0.312946 -0.58208,0.05477 -4.31255,0.04004 -8.28992,-0.03272 z m 28.00138,-0.214694 c 0,-0.263602 0.25543,-0.753448 0.56762,-1.088546 0.31219,-0.3351 1.35399,-1.116242 2.3151,-1.735875 0.96112,-0.619633 2.46186,-1.484458 3.33499,-1.921831 0.87312,-0.437374 2.3614,-1.093292 3.30729,-1.457597 0.94588,-0.364302 2.3151,-0.824185 3.04271,-1.021961 0.7276,-0.197773 2.15635,-0.360741 3.175,-0.362146 1.49326,-0.0021 2.01191,0.111448 2.67703,0.585888 0.45373,0.323646 0.97772,0.957263 1.16444,1.408036 0.28774,0.694658 0.27418,0.956532 -0.089,1.71804 -0.23565,0.494152 -0.9061,1.199989 -1.48991,1.568529 -0.5838,0.368541 -1.17439,0.670073 -1.31241,0.670073 -0.13801,0 -0.4457,0.194763 -0.68374,0.432803 -0.25188,0.251881 -1.17225,0.52492 -2.20171,0.653169 -0.9729,0.1212 -3.37625,0.400214 -5.34079,0.620033 -1.96453,0.219818 -4.6732,0.402142 -6.01927,0.405167 -2.18811,0.0049 -2.44739,-0.04528 -2.44739,-0.473782 z m -3.10886,-10.63286 c -0.35288,-0.146944 -0.60771,-0.493792 -0.62578,-0.851733 -0.0167,-0.332111 -0.006,-0.841963 0.0246,-1.133004 0.0303,-0.291042 0.25098,-0.748499 0.49042,-1.016572 0.30657,-0.343215 0.67108,-0.448667 1.23218,-0.35646 0.43825,0.07202 1.41536,0.410411 2.17135,0.751986 l 1.37453,0.621046 -1.13147,0.971825 c -0.62939,0.540599 -1.53282,1.035941 -2.03598,1.116316 -0.49749,0.07947 -1.17241,0.03294 -1.49984,-0.103404 z m 6.74868,-1.761368 -0.99039,-0.410821 0.8581,-0.625097 c 0.47195,-0.3438 1.13138,-0.824868 1.4654,-1.069038 0.51188,-0.374195 0.76613,-0.396359 1.61819,-0.141076 0.556,0.166579 1.29147,0.302871 1.63439,0.302871 h 0.62348 l -0.57018,0.39937 c -0.3136,0.219654 -0.92624,0.755436 -1.36143,1.190625 -0.51842,0.518414 -1.04917,0.786553 -1.53922,0.777621 -0.41137,-0.0075 -1.19363,-0.198504 -1.73834,-0.424455 z m 6.54664,-1.4957 c -0.29105,-0.173342 -0.58152,-0.347673 -0.6455,-0.387401 -0.064,-0.03973 0.13462,-0.247999 0.44132,-0.462825 0.30671,-0.214825 0.81525,-0.807399 1.1301,-1.316828 0.31484,-0.509432 0.72679,-0.92624 0.91543,-0.92624 0.18864,0 0.75689,0.172942 1.26278,0.384315 l 0.9198,0.384318 -1.2342,1.335474 c -0.69783,0.755094 -1.45722,1.328713 -1.74738,1.319916 -0.28225,-0.0085 -0.75131,-0.157385 -1.04235,-0.330729 z m -17.82756,-2.786954 c -0.23195,-0.157385 -0.31419,-0.523725 -0.22555,-1.004631 0.0767,-0.416306 0.44937,-1.631527 0.82808,-2.700491 0.37871,-1.068964 0.68595,-2.497714 0.68276,-3.175 -0.003,-0.677286 -0.22515,-1.71432 -0.49323,-2.304526 -0.26808,-0.590203 -1.00961,-1.523132 -1.64784,-2.073174 -0.63822,-0.550043 -1.56129,-1.207974 -2.05126,-1.462067 l -0.89084,-0.461989 3.1398,-0.716748 c 1.72689,-0.39421 3.79465,-0.907364 4.59501,-1.140338 0.80037,-0.232976 1.89695,-0.644848 2.43686,-0.915276 0.5399,-0.270425 1.28404,-0.491683 1.65364,-0.491683 0.3696,0 0.672,0.119063 0.672,0.264583 0,0.145521 0.16254,0.264584 0.36119,0.264584 0.19866,0 0.66055,0.235471 1.02643,0.523269 0.36588,0.2878 0.90075,1.031941 1.1886,1.653646 0.28786,0.621707 0.59827,1.617546 0.6898,2.212974 0.101,0.65699 0.006,1.69716 -0.24064,2.645834 -0.22388,0.859779 -0.72055,2.099016 -1.10371,2.75386 -0.38316,0.654843 -1.28467,1.813028 -2.00337,2.573745 -0.71871,0.760714 -1.85754,1.710864 -2.53074,2.111441 -0.67321,0.400576 -1.64074,0.878985 -2.15006,1.063127 -0.50932,0.184145 -1.52135,0.400455 -2.24896,0.480692 -0.7276,0.08024 -1.48719,0.03441 -1.68797,-0.101832 z m -3.2582,-18.668089 c -0.6831,-0.183902 -1.4351,-0.494615 -1.67109,-0.690476 -0.236,-0.19586 -0.6141,-0.713877 -0.84022,-1.151151 -0.30376,-0.587407 -0.37671,-1.283433 -0.27934,-2.665103 0.0818,-1.160812 0.44989,-2.735255 0.97051,-4.151291 0.4613,-1.2546756 1.47746,-3.3978005 2.25814,-4.7625001 0.78068,-1.3646997 1.79369,-2.9277547 2.25113,-3.4734578 0.60492,-0.7216352 1.03818,-0.9921875 1.58889,-0.9921875 0.41644,0 0.9499,0.073959 1.18547,0.1643539 0.23556,0.090395 0.59034,0.4777104 0.78839,0.8607001 0.19805,0.3829897 0.68538,2.0652025 1.08295,3.7382501 0.39757,1.6730477 1.02453,3.6372163 1.39323,4.3648203 0.48771,0.962451 0.70395,1.882847 0.7936,3.377872 0.091,1.517504 0.008,2.355614 -0.3158,3.204525 -0.33766,0.884163 -0.66627,1.250047 -1.42331,1.584793 -0.54136,0.239376 -1.62562,0.553514 -2.40947,0.698082 -0.78385,0.144568 -2.034,0.254817 -2.77812,0.244996 -0.74413,-0.0098 -1.91186,-0.168323 -2.59496,-0.352226 z m 48.09971,61.382997 c 0.64823,-0.648229 0.89959,-1.136153 0.89959,-1.74625 0,-0.610375 -0.25148,-1.098148 -0.9011,-1.747761 l -0.90109,-0.901094 -68.17807,0.06766 -68.178073,0.06766 -0.638543,0.742358 c -0.427643,0.49717 -0.638542,1.067591 -0.638542,1.727067 0,0.541589 0.191333,1.257875 0.425185,1.591744 0.233852,0.33387 0.680336,0.710002 0.992188,0.835851 0.313401,0.126473 30.903129,0.236315 68.392935,0.245583 l 67.82594,0.01677 z"
           id="path366" /><path
           style="display:inline;fill:#1c1c1c;fill-opacity:1;stroke-width:0.264583"
           d="m 60.383968,187.53313 -0.726958,-0.75878 0.08505,-9.09695 0.08505,-9.09695 0.734835,-1.85208 c 0.404159,-1.01865 1.165069,-2.50255 1.690912,-3.29757 0.525841,-0.79502 2.119792,-2.60029 3.54211,-4.01171 1.422318,-1.41142 3.322674,-3.06646 4.223012,-3.67786 0.900337,-0.61141 2.367687,-1.43911 3.26078,-1.83934 0.893091,-0.40022 2.772757,-1.10689 4.177035,-1.57038 1.404282,-0.46348 3.278349,-1.28333 4.1646,-1.82188 0.886251,-0.53855 2.345103,-1.51496 3.241895,-2.1698 0.896792,-0.65485 2.654961,-2.20266 3.907041,-3.43959 1.25208,-1.23692 2.906821,-3.08239 3.677203,-4.10104 0.770382,-1.01864 2.101202,-3.28083 2.957378,-5.02708 0.942162,-1.92163 1.76575,-4.0628 2.086282,-5.42396 0.291279,-1.23693 0.605009,-3.08239 0.697177,-4.10104 0.09217,-1.01865 0.0426,-2.84222 -0.110154,-4.05238 -0.152755,-1.21016 -0.51839,-2.97944 -0.812525,-3.93175 -0.294137,-0.95229 -0.885116,-2.46247 -1.313289,-3.35595 -0.428172,-0.89348 -1.353613,-2.33599 -2.056537,-3.20559 -0.702921,-0.8696 -1.975736,-2.14317 -2.828473,-2.83015 -0.852738,-0.68698 -2.338136,-1.65978 -3.300883,-2.16176 -0.962747,-0.502 -2.881543,-1.2715 -4.263991,-1.71002 -1.382448,-0.43852 -3.88276,-1.00302 -5.55625,-1.25444 -2.033857,-0.30556 -4.665641,-0.45819 -7.9375,-0.46033 -3.044965,-0.002 -6.167083,0.16248 -8.261376,0.43522 -1.85162,0.24113 -4.947245,0.73369 -6.879167,1.09457 -1.931918,0.36088 -4.40555,0.87816 -5.496957,1.14951 -1.091406,0.27134 -3.721631,1.00487 -5.844944,1.63005 -2.596943,0.76464 -4.089739,1.07918 -4.560716,0.96097 -0.38508,-0.0966 -0.910011,-0.49602 -1.166514,-0.88749 -0.437873,-0.66828 -0.466367,-2.39098 -0.466367,-28.19563 V 51.98809 l 0.86407,-0.772046 0.86407,-0.772046 h 24.099069 c 21.351896,0 24.198869,-0.04736 24.97454,-0.415439 0.481509,-0.228491 1.014655,-0.751456 1.184767,-1.162142 0.218133,-0.526619 0.231478,-1.008544 0.04528,-1.635083 -0.145209,-0.488608 -0.853337,-2.198065 -1.573615,-3.798794 -0.72028,-1.60073 -1.565153,-3.660942 -1.877496,-4.578252 -0.312346,-0.917311 -0.856626,-2.77908 -1.209514,-4.137269 -0.352885,-1.358185 -0.844283,-3.762816 -1.091994,-5.34362 -0.30241,-1.929886 -0.451858,-4.482361 -0.454871,-7.768984 -0.0032,-3.476405 0.128809,-5.661485 0.455522,-7.540624 0.253008,-1.455209 0.918311,-4.030874 1.478455,-5.7236995 0.560141,-1.6928253 1.399593,-3.8359502 1.865447,-4.7624998 0.465855,-0.9265496 1.383382,-2.5180712 2.038951,-3.53671702 0.655569,-1.01864579 1.944981,-2.75643168 2.865363,-3.86174708 0.92038,-1.1053127 2.43146,-2.7187709 3.357957,-3.5854612 0.926494,-0.8666929 2.727568,-2.3586121 4.002387,-3.3153774 1.274815,-0.956767 3.571055,-2.486093 5.102755,-3.398503 1.5317,-0.912409 4.28983,-2.339666 6.12918,-3.171681 1.83934,-0.832015 4.65395,-1.994445 6.25468,-2.583178 1.60073,-0.588733 4.4672,-1.548363 6.36994,-2.132511 1.90275,-0.584148 4.38631,-1.253518 5.51904,-1.48749 1.13273,-0.233971 3.55439,-0.539504 5.38146,-0.678961 2.16483,-0.165238 4.37223,-0.161486 6.33717,0.01077 1.65837,0.145381 4.1579,0.511899 5.55451,0.814486 1.39661,0.302586 3.74084,0.965238 5.20941,1.472558 1.46858,0.507321 3.68216,1.465524 4.91909,2.129342 1.23693,0.663817 2.92608,1.666275 3.75368,2.227683 0.8276,0.561408 2.23876,1.700326 3.1359,2.530928 0.89715,0.830603 2.63105,2.758235 3.8531,4.283627 2.14593,2.6786069 2.22124,2.8192647 2.20259,4.113646 -0.0106,0.7371132 -0.10795,1.9622398 -0.21628,2.7225068 -0.15966,1.1204654 -0.10492,1.5276829 0.28898,2.1498083 0.34853,0.5504603 0.7651,0.81005091 1.47306,0.91793741 0.5429,0.0827379 2.28443,0.23406628 3.87007,0.3362854 2.27075,0.14638866 2.98569,0.28858103 3.3667,0.66959424 0.26606,0.26605441 0.55989,0.78714862 0.65297,1.15798335 0.12049,0.4800811 -0.28858,1.8725434 -1.42052,4.8353739 -0.87436,2.288622 -1.78092,4.8342996 -2.01458,5.6570616 -0.23366,0.822762 -0.42484,2.268086 -0.42484,3.211833 0,1.254863 0.12731,1.873123 0.47382,2.301039 l 0.47381,0.585131 1.67044,-0.703077 c 1.16931,-0.492157 1.90302,-0.651992 2.44574,-0.532789 0.53571,0.11766 1.45811,0.937189 2.98475,2.651871 1.21519,1.364872 2.75337,3.409379 3.41817,4.543348 0.6648,1.133967 1.6271,2.967273 2.13844,4.074009 0.51134,1.106734 1.07295,2.547779 1.24801,3.202318 0.26652,0.996482 0.2464,1.446313 -0.12369,2.765296 -0.24309,0.866372 -0.44198,2.30003 -0.44198,3.185903 0,1.153147 0.25823,2.350751 0.90906,4.215976 0.49998,1.432912 1.45578,3.757129 2.124,5.164929 1.12673,2.373812 1.30564,2.604309 2.46437,3.175 l 1.24944,0.615365 28.10607,0.132292 28.10608,0.132291 0.73351,0.734928 c 0.65252,0.653783 0.73053,0.916705 0.70655,2.38125 -0.0148,0.905478 -0.23869,2.896478 -0.49749,4.424447 -0.2588,1.527969 -0.88214,4.021717 -1.3852,5.541663 -0.50306,1.519947 -1.43404,3.943686 -2.06884,5.386089 -0.6348,1.442402 -1.65607,3.473029 -2.26948,4.512502 -0.61342,1.039474 -1.74244,2.723391 -2.50895,3.742037 -0.7665,1.018646 -2.20538,2.645066 -3.19752,3.614269 -0.99214,0.9692 -3.23265,2.707005 -4.9789,3.861787 -1.74625,1.154781 -4.42515,2.763919 -5.95312,3.575859 -1.52797,0.811943 -4.32594,2.180971 -6.21771,3.042285 -1.89177,0.861314 -7.07099,3.086555 -11.50938,4.94498 -4.43838,1.858426 -9.6176,4.031693 -11.50937,4.829473 -1.89177,0.79779 -5.15932,2.27486 -7.26123,3.28237 -2.1019,1.00752 -5.13799,2.5612 -6.74687,3.45262 -1.60888,0.89142 -4.26585,2.50139 -5.90439,3.57769 -1.63854,1.0763 -3.84119,2.67368 -4.89479,3.54972 -1.0536,0.87605 -2.53541,2.31767 -3.29291,3.20362 -0.7575,0.88594 -1.80263,2.42027 -2.32251,3.4096 -0.51988,0.98934 -1.18003,2.71683 -1.467,3.83886 -0.32415,1.26741 -0.52176,2.91707 -0.52176,4.3557 0,1.27361 0.16728,3.18933 0.37174,4.25716 0.20446,1.06782 0.67914,2.82097 1.05485,3.89588 0.37571,1.0749 1.1719,2.86084 1.7693,3.96875 0.59741,1.1079 1.59747,2.72875 2.22235,3.60187 0.62488,0.87313 1.87517,2.39178 2.77843,3.37479 0.90325,0.98301 2.83449,2.68538 4.29165,3.78304 1.5529,1.16978 3.86957,2.5826 5.59771,3.41374 1.62159,0.77991 4.13897,1.79661 5.59418,2.25935 2.03438,0.64691 3.44073,0.89832 6.08542,1.08785 1.89177,0.13558 4.5152,0.35976 5.82984,0.49819 1.31465,0.13843 3.37924,0.53813 4.58799,0.88824 1.20875,0.3501 2.38077,0.8196 2.60451,1.04333 0.30688,0.30688 0.45957,1.37088 0.62173,4.33225 0.11823,2.15901 0.22206,7.4714 0.23075,11.80532 0.0125,6.22428 -0.0629,8.06816 -0.35867,8.7761 -0.20597,0.49294 -0.61486,1.02489 -0.90865,1.18213 -0.37122,0.19867 -7.75197,0.28588 -24.19485,0.28588 -13.01337,0 -24.19043,-0.0726 -24.83792,-0.16136 l -1.17725,-0.16136 -0.83104,-3.07979 c -0.45708,-1.69388 -1.1431,-4.50853 -1.52449,-6.25478 -0.50963,-2.33337 -1.06309,-3.9465 -2.0879,-6.08542 -0.76694,-1.60073 -1.96687,-3.62479 -2.6665,-4.49792 -0.69963,-0.87312 -2.29601,-2.64233 -3.54751,-3.93158 -1.2515,-1.28925 -3.14987,-2.99886 -4.2186,-3.79915 -1.06872,-0.80028 -2.91419,-1.90863 -4.10104,-2.463 -1.18685,-0.55437 -3.05087,-1.19105 -4.14228,-1.41484 -1.0914,-0.22379 -2.9392,-0.48645 -4.10622,-0.58368 -1.21574,-0.10129 -3.13652,-0.0452 -4.49792,0.13136 -1.30684,0.16948 -3.26904,0.5487 -4.36044,0.84272 -1.09141,0.29401 -3.09779,1.06132 -4.45863,1.70513 -1.36084,0.6438 -3.20631,1.6969 -4.10104,2.34022 -0.89474,0.64332 -2.37708,1.91591 -3.29411,2.82798 -0.91702,0.91207 -2.30478,2.61997 -3.08391,3.79533 -0.77913,1.17536 -1.89398,3.26811 -2.47745,4.65056 -0.58346,1.38244 -1.18477,2.98979 -1.33623,3.57187 -0.15147,0.58208 -0.52636,2.64804 -0.83311,4.59101 -0.30675,1.94298 -0.7886,4.2802 -1.07079,5.19382 -0.2822,0.91363 -0.66819,1.78987 -0.85776,1.94721 -0.18957,0.15733 -1.64771,0.40962 -3.24031,0.56064 -1.672965,0.15865 -10.49947,0.27468 -20.90393,0.27481 l -18.008311,2.2e-4 z m 5.01763,-11.45251 c 1.296461,-0.89537 3.547827,-2.54755 5.003035,-3.67151 1.455209,-1.12396 3.809085,-3.12449 5.230834,-4.44562 2.173983,-2.02013 2.826052,-2.47292 4.101042,-2.84773 0.833823,-0.24512 2.030915,-0.6272 2.660208,-0.84906 0.65651,-0.23146 1.417693,-0.762 1.785937,-1.24479 0.352973,-0.46277 0.641771,-0.96682 0.641771,-1.12011 0,-0.15329 0.654844,-1.11563 1.455208,-2.13853 0.800365,-1.0229 1.455209,-2.03252 1.455209,-2.24361 0,-0.21108 -0.196977,-0.5472 -0.437727,-0.74692 -0.314087,-0.26055 -1.138817,-0.34788 -2.919846,-0.30918 -1.365168,0.0297 -3.876863,0.23633 -5.581545,0.45924 -1.704684,0.22291 -3.882734,0.62349 -4.840112,0.89017 -0.957379,0.26668 -2.506282,0.91301 -3.442007,1.4363 -0.935723,0.52329 -2.430307,1.7106 -3.321294,2.63847 -0.937101,0.9759 -2.010627,2.46325 -2.546707,3.52842 -0.509701,1.01275 -1.177986,2.65558 -1.485077,3.65072 -0.307091,0.99515 -0.698008,3.14917 -0.868704,4.78673 -0.170696,1.63755 -0.234582,3.17483 -0.141973,3.41617 0.09261,0.24134 0.331769,0.4388 0.531466,0.4388 0.199694,0 1.423821,-0.73258 2.720282,-1.62796 z m 55.842712,-45.71349 c 0.82005,-0.37235 1.13591,-0.68903 1.24772,-1.25095 0.0824,-0.41382 0.22923,-1.22864 0.32642,-1.81073 0.0972,-0.58208 0.35455,-1.41552 0.57192,-1.85208 0.21737,-0.43656 1.02784,-1.56766 1.80104,-2.51354 0.77321,-0.94589 2.48939,-2.79136 3.81374,-4.10104 l 2.40792,-2.38125 3.24658,3.30729 c 1.78562,1.81901 3.63285,3.87427 4.10495,4.56724 0.55492,0.81453 0.99891,1.934 1.25593,3.16667 0.21866,1.04869 0.53938,2.07773 0.71271,2.28676 0.17333,0.20903 0.69827,0.5402 1.16654,0.73594 0.46827,0.19574 1.19635,0.35589 1.61796,0.35589 0.42162,0 1.07741,-0.24451 1.45734,-0.54336 0.37991,-0.29884 0.8161,-1.00885 0.96931,-1.57781 0.1532,-0.56895 0.53975,-1.21741 0.859,-1.44102 0.31924,-0.22361 0.9065,-0.40656 1.30502,-0.40656 0.40466,0 0.96275,-0.25567 1.26404,-0.57906 0.3138,-0.33682 0.53947,-0.93929 0.53947,-1.44021 0,-0.58994 -0.18518,-0.99085 -0.58803,-1.27302 -0.32342,-0.22653 -1.07831,-0.41188 -1.67753,-0.41188 -0.69544,0 -1.69998,-0.30506 -2.77736,-0.84343 -1.31724,-0.65824 -2.61921,-1.76389 -5.92924,-5.03522 l -4.24138,-4.19177 4.04953,-3.91358 c 2.22723,-2.15248 4.69099,-4.30236 5.47502,-4.77753 0.79113,-0.47948 1.93261,-0.91981 2.56506,-0.9895 0.62676,-0.069 1.39912,-0.17787 1.71637,-0.24182 0.31725,-0.064 0.76373,-0.3032 0.99219,-0.53165 0.22845,-0.22846 0.41537,-0.76947 0.41537,-1.20226 0,-0.48267 -0.25106,-1.03794 -0.64943,-1.4363 -0.38615,-0.386159 -0.95559,-0.649438 -1.40464,-0.649438 -0.41536,0 -0.94342,-0.148828 -1.17345,-0.330729 -0.23004,-0.181901 -0.56597,-0.806979 -0.74651,-1.389062 -0.18055,-0.582084 -0.45668,-1.219565 -0.61364,-1.416627 -0.15695,-0.197059 -0.58206,-0.471091 -0.94467,-0.608957 -0.43324,-0.164717 -1.08721,-0.148016 -1.90723,0.0487 -0.68636,0.164656 -1.43929,0.510829 -1.67318,0.769274 -0.23389,0.258445 -0.55422,1.231196 -0.71184,2.161669 -0.15762,0.930474 -0.59276,2.22567 -0.96699,2.87821 -0.37423,0.65253 -2.26499,2.79566 -4.2017,4.76249 l -3.52129,3.57607 -3.40201,-3.43958 c -1.91376,-1.93489 -3.76173,-4.07128 -4.22429,-4.88359 -0.4774,-0.83836 -0.89585,-2.032844 -0.99769,-2.84793 -0.0965,-0.772157 -0.39874,-1.687848 -0.67171,-2.034873 -0.30233,-0.384355 -1.0076,-0.75361 -1.80452,-0.944788 -1.05048,-0.252005 -1.45324,-0.244263 -2.0443,0.0393 -0.51309,0.24615 -0.88273,0.753912 -1.22011,1.676048 -0.26621,0.727604 -0.67958,1.471745 -0.9186,1.653646 -0.23902,0.181901 -0.77443,0.330729 -1.18979,0.330729 -0.44905,0 -1.01849,0.263279 -1.40464,0.649438 -0.39825,0.39824 -0.64943,0.95365 -0.64943,1.436 0,0.53461 0.22331,0.96223 0.69714,1.33494 0.45426,0.35733 1.08478,0.54837 1.80982,0.54837 0.71375,0 1.69831,0.29264 2.74605,0.81621 1.22668,0.61297 2.67007,1.82707 5.79695,4.87605 l 4.16358,4.05985 -3.57187,3.61149 c -1.96454,1.98633 -4.28625,4.12065 -5.15938,4.74294 -0.87312,0.6223 -1.99222,1.26775 -2.48688,1.43433 -0.49466,0.16658 -1.35786,0.30288 -1.91823,0.30288 -0.66607,0 -1.20207,0.18323 -1.54801,0.52917 -0.29105,0.29104 -0.52917,0.81076 -0.52917,1.15494 0,0.34418 0.24676,0.93949 0.54837,1.32292 0.39966,0.50808 0.7915,0.69714 1.4449,0.69714 0.5682,0 1.08489,0.20217 1.41085,0.55206 0.28288,0.30363 0.5896,0.95332 0.68161,1.44374 0.0939,0.5004 0.46887,1.12892 0.85458,1.43232 0.37801,0.29734 1.0582,0.53801 1.51152,0.53482 0.45331,-0.003 1.31832,-0.23017 1.92222,-0.50439 z M 49.080378,100.29864 c 0.478187,-0.402371 0.929331,-1.127456 1.103167,-1.773032 0.217556,-0.807947 0.215154,-1.439963 -0.0092,-2.428078 -0.166838,-0.734706 -0.493159,-2.169263 -0.725157,-3.187909 -0.269337,-1.182614 -0.421875,-3.095387 -0.421991,-5.291667 -1.41e-4,-2.681761 0.123645,-3.895089 0.561834,-5.507024 0.309108,-1.137094 0.949653,-2.794727 1.423435,-3.683632 0.473784,-0.888907 1.450012,-2.260203 2.169398,-3.047328 0.719386,-0.787122 2.01023,-1.908024 2.868541,-2.490893 0.858311,-0.582866 2.415085,-1.414595 3.459496,-1.848281 1.044411,-0.433689 3.030024,-1.032301 4.412472,-1.330248 1.928643,-0.415669 4.052745,-0.588669 9.128125,-0.743458 3.638021,-0.110956 39.139812,-0.164357 78.892862,-0.118674 64.80652,0.07448 72.36066,0.125656 73.07509,0.495102 0.43824,0.226621 0.98262,0.677338 1.20973,1.001588 0.22712,0.324252 0.41171,1.069072 0.41022,1.655159 -0.002,0.889611 -0.5453,1.973575 -3.28791,6.563143 -1.80684,3.023647 -3.36396,5.856258 -3.46026,6.294691 -0.10642,0.484523 -0.0494,0.948552 0.1453,1.183193 0.17621,0.21232 0.67082,0.386037 1.09913,0.386037 0.42831,0 1.00674,-0.122015 1.28539,-0.271147 0.27866,-0.14913 5.61094,-5.957948 11.84952,-12.908483 6.23859,-6.950533 11.47965,-12.892878 11.6468,-13.205209 0.16716,-0.31233 0.30392,-0.990539 0.30392,-1.507132 0,-0.663917 -0.22631,-1.192565 -0.77198,-1.803331 l -0.77197,-0.864071 -26.82261,-0.132292 c -25.33392,-0.124949 -26.86325,-0.158933 -27.55503,-0.61228 -0.40283,-0.263996 -1.07556,-1.02107 -1.49496,-1.68239 -0.4194,-0.661321 -1.13514,-2.231263 -1.59055,-3.488762 -0.4554,-1.257498 -1.22296,-3.828563 -1.70569,-5.713475 -0.64929,-2.535314 -1.03048,-3.550849 -1.46488,-3.902604 -0.35096,-0.284187 -1.02782,-0.477118 -1.68237,-0.479539 -0.60234,-0.0021 -1.26008,-0.108495 -1.46164,-0.236146 -0.2942,-0.18632 -0.25925,-0.289481 0.17724,-0.523084 0.29905,-0.160044 0.68877,-0.738388 0.86604,-1.285208 0.17728,-0.546822 0.73303,-1.81564 1.23501,-2.819596 0.52426,-1.048533 0.97242,-2.404234 1.05306,-3.185538 0.10762,-1.042723 0.004,-1.676196 -0.44215,-2.714302 -0.39622,-0.921028 -1.24006,-1.994003 -2.63829,-3.354689 -1.13067,-1.100299 -2.35236,-2.113314 -2.71487,-2.251144 -0.36252,-0.137826 -1.61546,-0.185047 -2.78431,-0.104933 -1.16885,0.08011 -2.55914,0.06425 -3.08952,-0.03525 -0.53039,-0.0995 -1.36855,-0.535803 -1.86257,-0.969561 -0.51496,-0.452141 -1.07702,-1.313394 -1.31726,-2.018455 -0.25496,-0.748279 -0.41831,-2.117831 -0.41718,-3.497781 0.001,-1.326973 0.21377,-3.146192 0.51261,-4.384638 0.28092,-1.164167 0.81221,-2.9133457 1.18065,-3.8870625 0.36844,-0.9737169 0.9712,-2.3949845 1.33947,-3.1583709 0.36827,-0.7633863 0.66958,-1.6471132 0.66958,-1.9638379 0,-0.3167248 -0.32742,-0.9071557 -0.7276,-1.3120687 -0.40018,-0.404913 -1.36479,-1.0203153 -2.14358,-1.36755976 -0.77878,-0.34724445 -1.99316,-0.75513668 -2.69861,-0.90643072 l -1.28264,-0.27507669 0.41879,-0.87821553 0.4188,-0.8782182 -3.1074,-4.1227929 c -1.70908,-2.2675346 -3.71925,-4.6401192 -4.46706,-5.2724072 -0.74781,-0.632291 -1.91213,-1.525144 -2.58738,-1.98412 -0.67525,-0.458975 -2.08816,-1.26632 -3.13979,-1.794099 -1.05164,-0.52778 -2.76135,-1.250168 -3.79936,-1.605308 -1.03801,-0.35514 -2.92342,-0.878112 -4.1898,-1.16216 -1.26638,-0.284047 -3.67762,-0.636998 -5.35831,-0.784335 -1.98367,-0.173898 -4.05506,-0.180197 -5.90391,-0.01795 -1.56646,0.137463 -3.97725,0.495778 -5.35732,0.796256 -1.38006,0.300479 -3.69983,0.91468 -5.15504,1.364893 -1.4552,0.450213 -4.46227,1.529825 -6.68237,2.399138 -2.22009,0.869313 -5.31572,2.234446 -6.87916,3.033628 -1.56345,0.799182 -4.21185,2.3644646 -5.88534,3.4784107 -2.10253,1.3995267 -3.99028,2.9680243 -6.109304,5.0761078 -1.87248,1.86280414 -3.648011,3.9354229 -4.55972,5.322665 -0.821219,1.2495503 -1.964074,3.333144 -2.539677,4.6302081 -0.575604,1.2970616 -1.37495,3.5489194 -1.776323,5.0041284 -0.689499,2.49983 -0.729763,2.952437 -0.729657,8.202082 1.08e-4,5.367817 0.02771,5.65944 0.813847,8.598958 0.447556,1.67349 1.26001,4.233334 1.805456,5.688542 0.545447,1.455208 1.69925,4.059481 2.564009,5.787271 0.864756,1.727792 2.341835,4.386426 3.282397,5.908079 0.940559,1.52165 2.420572,3.734575 3.288912,4.917612 0.86834,1.183034 1.57699,2.393931 1.57476,2.690881 -0.002,0.296947 -0.0939,0.681286 -0.20382,0.854083 -0.10988,0.172797 -0.53253,0.440687 -0.93922,0.595312 -0.50394,0.191596 -9.139611,0.281607 -27.114403,0.282612 -17.326538,0.0011 -26.712532,0.09523 -27.358935,0.274752 -0.541184,0.150302 -1.350076,0.581332 -1.79754,0.957847 -0.44746,0.376515 -1.046471,1.141103 -1.331132,1.699083 -0.49951,0.979122 -0.517564,1.678979 -0.517564,20.062601 0,13.99612 0.08222,19.228548 0.310013,19.728497 0.170508,0.374221 0.715121,0.930775 1.210251,1.236782 0.49513,0.306005 1.39742,0.711835 2.005092,0.901845 0.607668,0.19 1.363607,0.35343 1.679863,0.36316 0.316259,0.01 0.939088,-0.28865 1.384067,-0.66307 z M 136.46263,55.471081 c -6.76941,-0.123836 -7.25556,-0.165116 -7.60677,-0.645883 -0.20635,-0.282474 -0.37474,-0.58013 -0.3742,-0.661458 5.3e-4,-0.08133 0.23206,-0.526825 0.51448,-0.989997 0.28241,-0.463169 1.12566,-1.326028 1.87388,-1.917461 0.78405,-0.61976 1.99466,-1.259721 2.8575,-1.510554 1.24824,-0.362874 1.69525,-0.382715 2.68919,-0.119372 0.65565,0.173715 2.10313,0.708234 3.21663,1.187823 1.11349,0.479586 2.99915,1.443355 4.19035,2.141706 1.1912,0.698352 2.23073,1.438902 2.31007,1.645664 0.0794,0.206764 0.0392,0.47195 -0.0893,0.589304 -0.12846,0.117356 -0.70982,0.25818 -1.2919,0.312946 -0.58208,0.05477 -4.31255,0.04004 -8.28992,-0.03272 z m 24.89252,-10.847554 c -0.35288,-0.146944 -0.60771,-0.493792 -0.62578,-0.851733 -0.0167,-0.332111 -0.006,-0.841963 0.0246,-1.133004 0.0303,-0.291042 0.25098,-0.748499 0.49042,-1.016572 0.30657,-0.343215 0.67108,-0.448667 1.23218,-0.35646 0.43825,0.07202 1.41536,0.410411 2.17135,0.751986 l 1.37453,0.621046 -1.13147,0.971825 c -0.62939,0.540599 -1.53282,1.035941 -2.03598,1.116316 -0.49749,0.07947 -1.17241,0.03294 -1.49984,-0.103404 z m 6.74868,-1.761368 -0.99039,-0.410821 0.8581,-0.625097 c 0.47195,-0.3438 1.13138,-0.824868 1.4654,-1.069038 0.51188,-0.374195 0.76613,-0.396359 1.61819,-0.141076 0.556,0.166579 1.29147,0.302871 1.63439,0.302871 h 0.62348 l -0.57018,0.39937 c -0.3136,0.219654 -0.92624,0.755436 -1.36143,1.190625 -0.51842,0.518414 -1.04917,0.786553 -1.53922,0.777621 -0.41137,-0.0075 -1.19363,-0.198504 -1.73834,-0.424455 z m 6.54664,-1.4957 c -0.29105,-0.173342 -0.58152,-0.347673 -0.6455,-0.387401 -0.064,-0.03973 0.13462,-0.247999 0.44132,-0.462825 0.30671,-0.214825 0.81525,-0.807399 1.1301,-1.316828 0.31484,-0.509432 0.72679,-0.92624 0.91543,-0.92624 0.18864,0 0.75689,0.172942 1.26278,0.384315 l 0.9198,0.384318 -1.2342,1.335474 c -0.69783,0.755094 -1.45722,1.328713 -1.74738,1.319916 -0.28225,-0.0085 -0.75131,-0.157385 -1.04235,-0.330729 z M 153.56471,19.911416 c -0.6831,-0.183902 -1.4351,-0.494615 -1.67109,-0.690476 -0.236,-0.19586 -0.6141,-0.713877 -0.84022,-1.151151 -0.30376,-0.587407 -0.37671,-1.283433 -0.27934,-2.665103 0.0818,-1.160812 0.44989,-2.735255 0.97051,-4.151291 0.4613,-1.2546756 1.47746,-3.3978005 2.25814,-4.7625001 0.78068,-1.3646997 1.79369,-2.9277547 2.25113,-3.4734578 0.60492,-0.7216352 1.03818,-0.9921875 1.58889,-0.9921875 0.41644,0 0.9499,0.073959 1.18547,0.1643539 0.23556,0.090395 0.59034,0.4777104 0.78839,0.8607001 0.19805,0.3829897 0.68538,2.0652025 1.08295,3.7382501 0.39757,1.6730477 1.02453,3.6372163 1.39323,4.3648203 0.48771,0.962451 0.70395,1.882847 0.7936,3.377872 0.091,1.517504 0.008,2.355614 -0.3158,3.204525 -0.33766,0.884163 -0.66627,1.250047 -1.42331,1.584793 -0.54136,0.239376 -1.62562,0.553514 -2.40947,0.698082 -0.78385,0.144568 -2.034,0.254817 -2.77812,0.244996 -0.74413,-0.0098 -1.91186,-0.168323 -2.59496,-0.352226 z m 48.09971,61.382997 c 0.64823,-0.648229 0.89959,-1.136153 0.89959,-1.74625 0,-0.610375 -0.25148,-1.098148 -0.9011,-1.747761 l -0.90109,-0.901094 -68.17807,0.06766 -68.178073,0.06766 -0.638543,0.742358 c -0.427643,0.49717 -0.638542,1.067591 -0.638542,1.727067 0,0.541589 0.191333,1.257875 0.425185,1.591744 0.233852,0.33387 0.680336,0.710002 0.992188,0.835851 0.313401,0.126473 30.903129,0.236315 68.392935,0.245583 l 67.82594,0.01677 z"
           id="path364" /></g><text
         xml:space="preserve"
         style="font-size:29.6333px;line-height:0.7;text-align:start;text-anchor:start;fill:#ffffff;fill-opacity:1;stroke:#000000;stroke-width:1.16496;stroke-dasharray:none;stroke-dashoffset:0;stroke-opacity:1"
         x="144.02846"
         y="195.91081"
         id="text977"><tspan
           id="tspan975"
           style="font-style:normal;font-variant:normal;font-weight:bold;font-stretch:normal;font-size:29.6333px;font-family:Copperplate;-inkscape-font-specification:'Copperplate Bold';text-align:center;text-anchor:middle;display:inline;fill:#ffffff;fill-opacity:1;stroke:#000000;stroke-width:1.16496;stroke-linecap:round;stroke-linejoin:round;stroke-dasharray:none;stroke-dashoffset:0;stroke-opacity:1"
           x="144.02846"
           y="195.91081">Artificer</tspan><tspan
           style="font-style:normal;font-variant:normal;font-weight:bold;font-stretch:normal;font-size:29.6333px;font-family:Copperplate;-inkscape-font-specification:'Copperplate Bold';text-align:center;text-anchor:middle;display:inline;fill:#ffffff;fill-opacity:1;stroke:#000000;stroke-width:1.16496;stroke-linecap:round;stroke-linejoin:round;stroke-dasharray:none;stroke-dashoffset:0;stroke-opacity:1"
           x="144.02846"
           y="217.63651"
           id="tspan4414">Tees</tspan></text></g></g></svg>
